<svg xmlns="http://www.w3.org/2000/svg" xmlns:xlink="http://www.w3.org/1999/xlink" width="200" zoomAndPan="magnify" viewBox="0 0 150 74.999997" height="100" preserveAspectRatio="xMidYMid meet" version="1.2"><defs><clipPath id="643fecd39a"><path d="M 10 7.5 L 17 7.5 L 17 14 L 10 14 Z M 10 7.5 "/></clipPath><clipPath id="16eafd6bbc"><path d="M 7.5 14 L 19 14 L 19 37.5 L 7.5 37.5 Z M 7.5 14 "/></clipPath><clipPath id="3935a71079"><path d="M 18 11 L 52.5 11 L 52.5 36 L 18 36 Z M 18 11 "/></clipPath><clipPath id="05f78379cc"><path d="M 113.050781 32.621094 L 142.300781 32.621094 L 142.300781 67.871094 L 113.050781 67.871094 Z M 113.050781 32.621094 "/></clipPath></defs><g id="7c5af074f1"><g clip-rule="nonzero" clip-path="url(#643fecd39a)"><path style=" stroke:none;fill-rule:nonzero;fill:#4b5d67;fill-opacity:1;" d="M 16.441406 10.691406 C 16.441406 11.113281 16.363281 11.515625 16.203125 11.90625 C 16.039062 12.292969 15.8125 12.636719 15.515625 12.933594 C 15.214844 13.230469 14.875 13.460938 14.484375 13.621094 C 14.097656 13.78125 13.691406 13.863281 13.269531 13.863281 C 12.851562 13.863281 12.445312 13.78125 12.058594 13.621094 C 11.667969 13.460938 11.328125 13.230469 11.027344 12.933594 C 10.730469 12.636719 10.503906 12.292969 10.339844 11.90625 C 10.179688 11.515625 10.101562 11.113281 10.101562 10.691406 C 10.101562 10.269531 10.179688 9.867188 10.339844 9.476562 C 10.503906 9.089844 10.730469 8.746094 11.027344 8.449219 C 11.328125 8.152344 11.667969 7.921875 12.058594 7.761719 C 12.445312 7.601562 12.851562 7.519531 13.269531 7.519531 C 13.691406 7.519531 14.097656 7.601562 14.484375 7.761719 C 14.875 7.921875 15.214844 8.152344 15.515625 8.449219 C 15.8125 8.746094 16.039062 9.089844 16.203125 9.476562 C 16.363281 9.867188 16.441406 10.269531 16.441406 10.691406 Z M 16.441406 10.691406 "/></g><g clip-rule="nonzero" clip-path="url(#16eafd6bbc)"><path style=" stroke:none;fill-rule:nonzero;fill:#4b5d67;fill-opacity:1;" d="M 15.328125 14.746094 L 11.101562 14.746094 C 11.101562 14.746094 7.5 14.664062 7.5 18.347656 C 7.5 21.519531 7.5 24.347656 7.5 25.089844 C 7.5 26.832031 9.441406 26.605469 9.441406 26.605469 L 9.441406 35.691406 C 9.441406 35.691406 9.472656 37.433594 11.355469 37.375 C 13.101562 37.320312 13.214844 35.804688 13.214844 35.578125 C 13.214844 35.804688 13.328125 37.320312 15.070312 37.375 C 16.957031 37.433594 16.984375 35.691406 16.984375 35.691406 L 16.984375 26.605469 C 16.984375 26.605469 18.929688 26.832031 18.929688 25.089844 C 18.929688 24.347656 18.929688 21.519531 18.929688 18.347656 C 18.929688 14.632812 15.328125 14.746094 15.328125 14.746094 Z M 15.328125 14.746094 "/></g><g clip-rule="nonzero" clip-path="url(#3935a71079)"><path style=" stroke:none;fill-rule:nonzero;fill:#4b5d67;fill-opacity:1;" d="M 52.15625 22.375 C 51.757812 21.691406 50.898438 21.234375 50.898438 21.234375 L 44.042969 19.0625 C 44.042969 19.0625 37.015625 13.234375 35.785156 12.40625 C 34.558594 11.578125 32.527344 11.632812 32.527344 11.632812 C 32.527344 11.632812 25.929688 11.492188 23.898438 11.632812 C 21.871094 11.777344 20.757812 12.691406 20.757812 12.691406 L 18.671875 14.207031 C 19.785156 15.148438 20.070312 15.976562 20.070312 15.976562 C 20.8125 14.71875 22.699219 13.777344 22.699219 13.777344 L 25.8125 13.777344 L 25.785156 20.234375 L 20.613281 20.234375 C 20.613281 20.234375 20.613281 23.976562 20.613281 25.089844 C 20.613281 26.207031 19.929688 26.976562 19.929688 26.976562 C 21.414062 27.234375 22.5 28.578125 22.386719 30.148438 C 22.269531 31.605469 21.070312 32.777344 19.613281 32.890625 C 19.300781 32.917969 18.984375 32.890625 18.671875 32.804688 L 18.671875 35.234375 C 18.898438 35.261719 19.15625 35.289062 19.414062 35.289062 C 22.128906 35.289062 24.355469 33.289062 24.730469 30.691406 L 38.527344 30.691406 C 38.898438 33.289062 41.128906 35.289062 43.84375 35.289062 C 46.558594 35.289062 48.785156 33.289062 49.15625 30.691406 L 49.929688 30.691406 C 49.929688 30.691406 50.414062 30.632812 50.671875 30.375 C 50.671875 30.375 51.214844 29.746094 51.785156 29.121094 C 52.070312 28.777344 52.242188 28.546875 52.328125 28.375 C 52.386719 28.234375 52.441406 28.089844 52.441406 27.949219 L 52.441406 23.863281 C 52.441406 23.664062 52.5 23.003906 52.15625 22.375 Z M 40.101562 20.003906 C 40.101562 20.003906 39.898438 20.234375 39.5 20.234375 C 39.101562 20.234375 27.984375 20.234375 27.984375 20.234375 L 27.984375 13.777344 L 33.042969 13.777344 C 33.042969 13.777344 33.785156 13.777344 34.414062 14.207031 C 35.042969 14.605469 40.070312 18.890625 40.070312 18.890625 C 40.070312 18.890625 40.757812 19.347656 40.101562 20.003906 Z M 43.84375 32.890625 C 42.214844 32.890625 40.871094 31.546875 40.871094 29.917969 C 40.871094 28.289062 42.214844 26.949219 43.84375 26.949219 C 45.472656 26.949219 46.8125 28.289062 46.8125 29.917969 C 46.8125 31.546875 45.5 32.890625 43.84375 32.890625 Z M 43.84375 32.890625 "/></g><g clip-rule="nonzero" clip-path="url(#05f78379cc)"><path style=" stroke:none;fill-rule:nonzero;fill:#4b5d67;fill-opacity:1;" d="M 141.984375 37.667969 C 141.550781 37.179688 140.832031 37.308594 140.253906 37.175781 C 136.074219 36.488281 132.144531 34.777344 128.390625 32.863281 C 128.210938 32.777344 128.027344 32.707031 127.839844 32.640625 L 127.566406 32.640625 C 126.917969 32.835938 126.339844 33.207031 125.726562 33.492188 C 122.433594 35.109375 118.980469 36.5 115.351562 37.136719 C 114.828125 37.242188 114.285156 37.234375 113.773438 37.386719 C 113.371094 37.566406 113.070312 37.992188 113.09375 38.441406 C 113.054688 40.945312 113.144531 43.449219 113.339844 45.941406 C 113.621094 49.117188 114.078125 52.308594 115.148438 55.328125 C 115.664062 56.726562 116.324219 58.101562 117.316406 59.230469 C 120.023438 62.4375 123.386719 65.0625 127.070312 67.0625 C 127.226562 67.140625 127.390625 67.207031 127.558594 67.253906 L 127.792969 67.253906 C 128.449219 67.070312 128.992188 66.632812 129.59375 66.324219 C 132.445312 64.636719 135.054688 62.535156 137.304688 60.097656 C 137.984375 59.328125 138.679688 58.558594 139.164062 57.652344 C 140.296875 55.644531 140.894531 53.390625 141.339844 51.144531 C 142.105469 47.054688 142.304688 42.875 142.28125 38.722656 C 142.292969 38.351562 142.265625 37.945312 141.984375 37.667969 Z M 140.398438 50.226562 C 139.9375 52.746094 139.339844 55.3125 137.984375 57.519531 C 136.78125 59.261719 135.230469 60.730469 133.644531 62.113281 C 131.8125 63.679688 129.796875 65.015625 127.6875 66.171875 C 123.980469 64.160156 120.585938 61.511719 117.90625 58.242188 C 116.527344 56.476562 115.875 54.28125 115.355469 52.132812 C 114.359375 47.628906 114.121094 42.992188 114.1875 38.390625 C 118.96875 37.851562 123.4375 35.882812 127.6875 33.726562 C 131.9375 35.886719 136.410156 37.847656 141.191406 38.386719 C 141.253906 42.34375 141.0625 46.320312 140.398438 50.226562 Z M 140.398438 50.226562 "/></g><path style=" stroke:none;fill-rule:nonzero;fill:#4b5d67;fill-opacity:1;" d="M 116.335938 40.269531 C 116.414062 44.527344 116.660156 48.832031 117.785156 52.957031 C 118.226562 54.480469 118.792969 56.023438 119.878906 57.210938 C 122.0625 59.824219 124.769531 61.953125 127.6875 63.6875 C 130.792969 61.84375 133.660156 59.539062 135.914062 56.703125 C 136.980469 55.238281 137.488281 53.457031 137.90625 51.71875 C 138.746094 47.964844 138.972656 44.105469 139.035156 40.269531 C 135.0625 39.503906 131.292969 37.957031 127.6875 36.15625 C 124.078125 37.957031 120.308594 39.503906 116.335938 40.269531 Z M 116.335938 40.269531 "/><g style="fill:#a9d6e5;fill-opacity:1;"><g transform="translate(13.528129, 45.001228)"><path style="stroke:none" d="M 4.546875 -6.40625 C 4.328125 -6.40625 4.21875 -6.546875 4.21875 -6.828125 C 4.21875 -7.023438 4.304688 -7.242188 4.484375 -7.484375 C 4.671875 -7.734375 4.785156 -7.894531 4.828125 -7.96875 C 4.867188 -8.050781 4.972656 -8.171875 5.140625 -8.328125 C 5.304688 -8.492188 5.453125 -8.59375 5.578125 -8.625 C 5.710938 -8.65625 5.976562 -8.691406 6.375 -8.734375 C 7.59375 -8.847656 8.921875 -8.914062 10.359375 -8.9375 C 11.921875 -11.300781 13.195312 -13.054688 14.1875 -14.203125 C 12.71875 -13.941406 10.921875 -13.8125 8.796875 -13.8125 C 5.921875 -13.8125 4.484375 -14.453125 4.484375 -15.734375 C 4.484375 -16.109375 4.664062 -16.429688 5.03125 -16.703125 C 5.40625 -16.972656 5.875 -17.109375 6.4375 -17.109375 C 7.007812 -17.109375 7.296875 -17.039062 7.296875 -16.90625 C 7.296875 -16.84375 7.207031 -16.8125 7.03125 -16.8125 C 6.851562 -16.8125 6.6875 -16.742188 6.53125 -16.609375 C 6.382812 -16.484375 6.3125 -16.363281 6.3125 -16.25 C 6.3125 -16.0625 6.691406 -15.925781 7.453125 -15.84375 C 8.222656 -15.757812 9.40625 -15.71875 11 -15.71875 C 12.59375 -15.71875 14.328125 -15.863281 16.203125 -16.15625 C 16.816406 -16.65625 17.394531 -17.035156 17.9375 -17.296875 C 18.476562 -17.554688 19.03125 -17.6875 19.59375 -17.6875 C 20.15625 -17.6875 20.519531 -17.5625 20.6875 -17.3125 C 20.863281 -17.0625 20.953125 -16.875 20.953125 -16.75 C 20.960938 -16.625 20.875 -16.457031 20.6875 -16.25 C 20.5 -16.050781 20.238281 -15.847656 19.90625 -15.640625 C 19.113281 -15.148438 18.078125 -14.859375 16.796875 -14.765625 C 15.429688 -13.035156 14.019531 -11.082031 12.5625 -8.90625 C 13.164062 -8.882812 13.726562 -8.835938 14.25 -8.765625 C 14.769531 -8.703125 15.03125 -8.5 15.03125 -8.15625 C 15.03125 -8.019531 14.8125 -7.75 14.375 -7.34375 C 14.320312 -7.289062 14.257812 -7.210938 14.1875 -7.109375 C 14.0625 -6.921875 13.9375 -6.828125 13.8125 -6.828125 C 13.695312 -6.828125 13.5625 -6.84375 13.40625 -6.875 C 12.800781 -6.894531 12.34375 -6.90625 12.03125 -6.90625 L 11.28125 -6.890625 C 8.53125 -2.609375 7.109375 -0.382812 7.015625 -0.21875 C 6.921875 -0.0507812 6.820312 0.0703125 6.71875 0.15625 C 6.613281 0.25 6.484375 0.296875 6.328125 0.296875 C 6.171875 0.296875 5.953125 0.269531 5.671875 0.21875 C 5.390625 0.164062 5.175781 0.101562 5.03125 0.03125 C 4.894531 -0.0390625 4.828125 -0.132812 4.828125 -0.25 C 4.828125 -0.363281 4.863281 -0.523438 4.9375 -0.734375 C 5.125 -1.265625 6.4375 -3.285156 8.875 -6.796875 C 7.289062 -6.722656 6.03125 -6.640625 5.09375 -6.546875 Z M 19.4375 -17 C 19.3125 -16.957031 19.15625 -16.894531 18.96875 -16.8125 Z M 19.4375 -17 "/></g><g transform="translate(27.461721, 45.001228)"><path style="stroke:none" d="M 9.671875 -8.90625 C 10.265625 -8.90625 10.5625 -8.703125 10.5625 -8.296875 C 10.5625 -8.078125 10.507812 -7.914062 10.40625 -7.8125 C 10.300781 -7.71875 10.082031 -7.378906 9.75 -6.796875 C 9.425781 -6.222656 9.0625 -5.488281 8.65625 -4.59375 C 8.25 -3.707031 7.988281 -2.945312 7.875 -2.3125 C 7.851562 -2.226562 7.84375 -2.117188 7.84375 -1.984375 C 7.84375 -1.554688 7.957031 -1.34375 8.1875 -1.34375 C 8.425781 -1.34375 8.703125 -1.453125 9.015625 -1.671875 C 9.335938 -1.890625 9.625 -2.125 9.875 -2.375 C 10.125 -2.632812 10.367188 -2.894531 10.609375 -3.15625 C 10.847656 -3.425781 10.988281 -3.582031 11.03125 -3.625 C 11.082031 -3.664062 11.15625 -3.6875 11.25 -3.6875 C 11.394531 -3.6875 11.484375 -3.570312 11.515625 -3.34375 C 11.546875 -3.113281 11.5625 -2.878906 11.5625 -2.640625 C 11.5625 -2.398438 11.539062 -2.234375 11.5 -2.140625 C 11.269531 -1.691406 10.769531 -1.15625 10 -0.53125 C 9.226562 0.09375 8.53125 0.40625 7.90625 0.40625 C 7.28125 0.40625 6.816406 0.21875 6.515625 -0.15625 C 6.222656 -0.539062 6.078125 -0.96875 6.078125 -1.4375 C 6.078125 -1.90625 6.15625 -2.3125 6.3125 -2.65625 C 5.65625 -1.8125 4.90625 -1.097656 4.0625 -0.515625 C 3.226562 0.0664062 2.546875 0.359375 2.015625 0.359375 C 1.484375 0.359375 1.050781 0.195312 0.71875 -0.125 C 0.289062 -0.519531 0.078125 -1.070312 0.078125 -1.78125 C 0.078125 -2.488281 0.234375 -3.195312 0.546875 -3.90625 C 0.859375 -4.625 1.269531 -5.273438 1.78125 -5.859375 C 2.300781 -6.453125 2.875 -6.992188 3.5 -7.484375 C 4.789062 -8.492188 5.984375 -9 7.078125 -9 C 7.503906 -9 7.847656 -8.925781 8.109375 -8.78125 C 8.378906 -8.644531 8.546875 -8.472656 8.609375 -8.265625 C 8.796875 -8.546875 8.953125 -8.722656 9.078125 -8.796875 C 9.210938 -8.867188 9.410156 -8.90625 9.671875 -8.90625 Z M 8.109375 -7.609375 C 6.773438 -7.609375 5.394531 -6.863281 3.96875 -5.375 C 3.457031 -4.84375 2.988281 -4.207031 2.5625 -3.46875 C 2.132812 -2.726562 1.921875 -2.21875 1.921875 -1.9375 C 1.921875 -1.664062 2 -1.53125 2.15625 -1.53125 C 2.375 -1.53125 2.984375 -1.960938 3.984375 -2.828125 C 4.984375 -3.691406 5.648438 -4.328125 5.984375 -4.734375 C 6.335938 -5.191406 7.046875 -6.148438 8.109375 -7.609375 Z M 8.109375 -7.609375 "/></g><g transform="translate(37.235158, 45.001228)"><path style="stroke:none" d="M 11.046875 -3.453125 C 11.097656 -3.097656 11.125 -2.816406 11.125 -2.609375 C 11.125 -2.398438 11.085938 -2.21875 11.015625 -2.0625 C 10.941406 -1.914062 10.773438 -1.703125 10.515625 -1.421875 C 10.265625 -1.148438 9.960938 -0.875 9.609375 -0.59375 C 8.753906 0.09375 7.875 0.4375 6.96875 0.4375 C 5.6875 0.4375 5.046875 -0.132812 5.046875 -1.28125 C 5.046875 -2.269531 5.90625 -4.242188 7.625 -7.203125 C 7.6875 -7.316406 7.734375 -7.394531 7.765625 -7.4375 C 7.160156 -7.019531 6.007812 -5.867188 4.3125 -3.984375 C 2.613281 -2.109375 1.484375 -0.78125 0.921875 0 C 0.867188 0.0703125 0.75 0.148438 0.5625 0.234375 C 0.375 0.316406 0.226562 0.359375 0.125 0.359375 C 0.0195312 0.359375 -0.09375 0.328125 -0.21875 0.265625 C -0.34375 0.203125 -0.421875 0.171875 -0.453125 0.171875 C -0.546875 0.171875 -0.59375 0.132812 -0.59375 0.0625 C -0.59375 0 -0.453125 -0.359375 -0.171875 -1.015625 C 0.0976562 -1.671875 0.460938 -2.484375 0.921875 -3.453125 C 2.160156 -6.117188 4.003906 -9.59375 6.453125 -13.875 C 7.316406 -15.375 7.988281 -16.4375 8.46875 -17.0625 C 8.8125 -17.507812 9.390625 -17.734375 10.203125 -17.734375 C 10.378906 -17.734375 10.476562 -17.679688 10.5 -17.578125 C 10.519531 -17.472656 10.53125 -17.363281 10.53125 -17.25 C 10.53125 -17.132812 10.507812 -17.019531 10.46875 -16.90625 L 9.21875 -14.9375 C 6.726562 -11.0625 4.851562 -7.851562 3.59375 -5.3125 C 4.8125 -6.789062 6 -7.9375 7.15625 -8.75 C 7.863281 -9.25 8.394531 -9.5 8.75 -9.5 C 9.101562 -9.5 9.425781 -9.441406 9.71875 -9.328125 C 10.007812 -9.222656 10.15625 -8.953125 10.15625 -8.515625 C 10.15625 -8.359375 9.898438 -7.78125 9.390625 -6.78125 C 7.867188 -3.78125 7.109375 -2.113281 7.109375 -1.78125 C 7.109375 -1.457031 7.242188 -1.296875 7.515625 -1.296875 C 7.910156 -1.296875 8.523438 -1.679688 9.359375 -2.453125 C 9.984375 -3.035156 10.375 -3.410156 10.53125 -3.578125 C 10.625 -3.648438 10.710938 -3.6875 10.796875 -3.6875 C 10.941406 -3.6875 11.023438 -3.609375 11.046875 -3.453125 Z M 11.046875 -3.453125 "/></g><g transform="translate(46.668751, 45.001228)"><path style="stroke:none" d="M 4.5625 -6.390625 C 6.40625 -8.484375 7.972656 -9.53125 9.265625 -9.53125 C 9.585938 -9.53125 9.851562 -9.429688 10.0625 -9.234375 C 10.269531 -9.046875 10.375 -8.800781 10.375 -8.5 C 10.375 -8.195312 10.15625 -7.6875 9.71875 -6.96875 C 9.289062 -6.25 8.890625 -5.644531 8.515625 -5.15625 C 8.328125 -4.90625 8.109375 -4.78125 7.859375 -4.78125 C 7.609375 -4.78125 7.414062 -4.867188 7.28125 -5.046875 C 7.144531 -5.234375 7.078125 -5.445312 7.078125 -5.6875 C 7.078125 -6.226562 7.367188 -6.835938 7.953125 -7.515625 L 7.921875 -7.53125 C 7.660156 -7.507812 7.019531 -7.003906 6 -6.015625 C 4.988281 -5.023438 4.125 -4.132812 3.40625 -3.34375 C 2.6875 -2.5625 1.910156 -1.609375 1.078125 -0.484375 C 0.835938 -0.140625 0.632812 0.03125 0.46875 0.03125 C 0.300781 0.03125 0.078125 -0.0195312 -0.203125 -0.125 C -0.484375 -0.238281 -0.648438 -0.316406 -0.703125 -0.359375 C -0.765625 -0.410156 -0.796875 -0.488281 -0.796875 -0.59375 C -0.796875 -0.707031 -0.765625 -0.835938 -0.703125 -0.984375 C -0.640625 -1.128906 -0.523438 -1.332031 -0.359375 -1.59375 C -0.191406 -1.863281 0.0625 -2.296875 0.40625 -2.890625 C 0.75 -3.484375 1.28125 -4.378906 2 -5.578125 C 2.71875 -6.785156 3.144531 -7.515625 3.28125 -7.765625 C 3.582031 -8.273438 3.828125 -8.648438 4.015625 -8.890625 C 4.359375 -9.328125 4.953125 -9.546875 5.796875 -9.546875 C 5.984375 -9.546875 6.078125 -9.429688 6.078125 -9.203125 C 6.078125 -8.835938 5.734375 -8.144531 5.046875 -7.125 Z M 4.5625 -6.390625 "/></g></g><g style="fill:#66a5ad;fill-opacity:1;"><g transform="translate(55.047657, 45.001228)"><path style="stroke:none" d="M 2.015625 -2.34375 L 2 -2.15625 C 2 -1.957031 2.070312 -1.785156 2.21875 -1.640625 C 2.375 -1.503906 2.515625 -1.4375 2.640625 -1.4375 C 3.578125 -1.4375 4.40625 -1.578125 5.125 -1.859375 C 5.851562 -2.140625 6.21875 -2.421875 6.21875 -2.703125 C 6.21875 -2.835938 6.082031 -2.953125 5.8125 -3.046875 C 5.550781 -3.148438 5.109375 -3.273438 4.484375 -3.421875 C 3.867188 -3.566406 3.421875 -3.675781 3.140625 -3.75 C 2.859375 -3.832031 2.632812 -3.910156 2.46875 -3.984375 C 2.3125 -4.054688 2.144531 -4.15625 1.96875 -4.28125 C 1.601562 -4.539062 1.421875 -4.925781 1.421875 -5.4375 C 1.421875 -5.945312 1.609375 -6.453125 1.984375 -6.953125 C 2.367188 -7.460938 2.84375 -7.894531 3.40625 -8.25 C 3.976562 -8.613281 4.59375 -8.929688 5.25 -9.203125 C 6.550781 -9.742188 7.640625 -10.015625 8.515625 -10.015625 C 9.390625 -10.015625 9.925781 -9.828125 10.125 -9.453125 C 10.1875 -9.316406 10.21875 -9.164062 10.21875 -9 L 10.21875 -8.921875 C 10.21875 -8.503906 10.128906 -8.175781 9.953125 -7.9375 C 9.773438 -7.707031 9.5 -7.5 9.125 -7.3125 C 8.75 -7.125 8.445312 -7.03125 8.21875 -7.03125 C 8 -7.03125 7.859375 -7.046875 7.796875 -7.078125 C 7.742188 -7.109375 7.695312 -7.148438 7.65625 -7.203125 C 7.613281 -7.253906 7.5625 -7.289062 7.5 -7.3125 C 7.445312 -7.332031 7.421875 -7.390625 7.421875 -7.484375 C 7.421875 -7.578125 7.457031 -7.671875 7.53125 -7.765625 C 7.613281 -7.867188 7.671875 -7.976562 7.703125 -8.09375 C 7.179688 -8.0625 6.640625 -7.9375 6.078125 -7.71875 C 5.515625 -7.507812 5.03125 -7.269531 4.625 -7 C 4.226562 -6.738281 3.894531 -6.488281 3.625 -6.25 C 3.363281 -6.007812 3.234375 -5.832031 3.234375 -5.71875 C 3.234375 -5.601562 3.414062 -5.507812 3.78125 -5.4375 C 5.394531 -5.113281 6.453125 -4.832031 6.953125 -4.59375 C 7.460938 -4.363281 7.816406 -4.097656 8.015625 -3.796875 C 8.210938 -3.503906 8.3125 -3.238281 8.3125 -3 C 8.3125 -2.5 8.109375 -2.023438 7.703125 -1.578125 C 7.304688 -1.140625 6.816406 -0.78125 6.234375 -0.5 C 4.972656 0.125 3.875 0.4375 2.9375 0.4375 C 2.007812 0.4375 1.367188 0.289062 1.015625 0 C 0.660156 -0.28125 0.484375 -0.613281 0.484375 -1 C 0.484375 -1.394531 0.582031 -1.757812 0.78125 -2.09375 C 0.976562 -2.425781 1.234375 -2.59375 1.546875 -2.59375 C 1.859375 -2.59375 2.015625 -2.507812 2.015625 -2.34375 Z M 2.015625 -2.34375 "/></g><g transform="translate(63.871875, 45.001228)"><path style="stroke:none" d="M 8.359375 -12.875 C 8.359375 -12.425781 8.148438 -11.976562 7.734375 -11.53125 C 7.316406 -11.082031 6.882812 -10.859375 6.4375 -10.859375 C 5.988281 -10.859375 5.765625 -11.09375 5.765625 -11.5625 C 5.765625 -12.03125 5.960938 -12.472656 6.359375 -12.890625 C 6.753906 -13.316406 7.191406 -13.53125 7.671875 -13.53125 C 7.878906 -13.53125 8.046875 -13.472656 8.171875 -13.359375 C 8.296875 -13.242188 8.359375 -13.082031 8.359375 -12.875 Z M 6.453125 -2.640625 C 6.453125 -2.398438 6.429688 -2.234375 6.390625 -2.140625 C 6.003906 -1.359375 5.394531 -0.722656 4.5625 -0.234375 C 3.726562 0.242188 3 0.484375 2.375 0.484375 C 1.757812 0.484375 1.226562 0.273438 0.78125 -0.140625 C 0.34375 -0.554688 0.125 -0.976562 0.125 -1.40625 C 0.125 -1.832031 0.335938 -2.457031 0.765625 -3.28125 C 1.191406 -4.101562 1.617188 -4.859375 2.046875 -5.546875 C 2.484375 -6.242188 2.703125 -6.625 2.703125 -6.6875 C 2.703125 -6.75 2.617188 -6.863281 2.453125 -7.03125 C 2.296875 -7.207031 2.21875 -7.332031 2.21875 -7.40625 C 2.21875 -7.488281 2.378906 -7.703125 2.703125 -8.046875 C 3.023438 -8.398438 3.414062 -8.742188 3.875 -9.078125 C 4.34375 -9.421875 4.703125 -9.59375 4.953125 -9.59375 C 5.203125 -9.59375 5.421875 -9.484375 5.609375 -9.265625 C 5.804688 -9.046875 5.90625 -8.847656 5.90625 -8.671875 C 5.90625 -8.492188 4.976562 -6.800781 3.125 -3.59375 C 3.09375 -3.550781 3.023438 -3.445312 2.921875 -3.28125 C 2.816406 -3.125 2.734375 -2.992188 2.671875 -2.890625 C 2.617188 -2.785156 2.550781 -2.660156 2.46875 -2.515625 C 2.3125 -2.203125 2.234375 -1.9375 2.234375 -1.71875 C 2.234375 -1.457031 2.410156 -1.328125 2.765625 -1.328125 C 3.128906 -1.328125 3.503906 -1.445312 3.890625 -1.6875 C 4.285156 -1.9375 4.625 -2.210938 4.90625 -2.515625 C 5.632812 -3.296875 6.050781 -3.6875 6.15625 -3.6875 C 6.351562 -3.6875 6.453125 -3.335938 6.453125 -2.640625 Z M 6.453125 -2.640625 "/></g><g transform="translate(68.735155, 45.001228)"><path style="stroke:none" d="M 8.34375 -2.59375 C 8.75 -2.851562 9.007812 -3.03125 9.125 -3.125 C 9.25 -3.226562 9.390625 -3.347656 9.546875 -3.484375 C 9.703125 -3.617188 9.828125 -3.6875 9.921875 -3.6875 C 10.078125 -3.6875 10.15625 -3.503906 10.15625 -3.140625 C 10.15625 -2.785156 9.984375 -2.40625 9.640625 -2 C 9.296875 -1.59375 8.863281 -1.242188 8.34375 -0.953125 C 7.832031 -0.671875 7.28125 -0.425781 6.6875 -0.21875 C 5.53125 0.21875 4.539062 0.4375 3.71875 0.4375 C 2.90625 0.4375 2.171875 0.171875 1.515625 -0.359375 C 0.859375 -0.898438 0.53125 -1.601562 0.53125 -2.46875 C 0.53125 -3.332031 0.742188 -4.195312 1.171875 -5.0625 C 1.597656 -5.925781 2.148438 -6.679688 2.828125 -7.328125 C 3.503906 -7.984375 4.289062 -8.515625 5.1875 -8.921875 C 6.082031 -9.328125 6.96875 -9.53125 7.84375 -9.53125 C 8.257812 -9.53125 8.632812 -9.40625 8.96875 -9.15625 C 9.3125 -8.914062 9.484375 -8.582031 9.484375 -8.15625 C 9.484375 -7.738281 9.273438 -7.234375 8.859375 -6.640625 C 8.441406 -6.054688 8.015625 -5.765625 7.578125 -5.765625 C 7.078125 -5.765625 6.828125 -6.003906 6.828125 -6.484375 C 6.828125 -6.609375 6.941406 -6.828125 7.171875 -7.140625 C 7.410156 -7.460938 7.53125 -7.679688 7.53125 -7.796875 C 7.53125 -7.910156 7.488281 -7.96875 7.40625 -7.96875 C 6.976562 -7.96875 6.515625 -7.816406 6.015625 -7.515625 C 5.523438 -7.222656 5.078125 -6.910156 4.671875 -6.578125 C 4.273438 -6.253906 3.898438 -5.890625 3.546875 -5.484375 C 2.765625 -4.597656 2.375 -3.679688 2.375 -2.734375 C 2.375 -2.347656 2.492188 -2.015625 2.734375 -1.734375 C 2.984375 -1.460938 3.398438 -1.328125 3.984375 -1.328125 C 4.566406 -1.328125 5.148438 -1.394531 5.734375 -1.53125 C 6.316406 -1.664062 6.796875 -1.8125 7.171875 -1.96875 C 7.554688 -2.132812 7.945312 -2.34375 8.34375 -2.59375 Z M 8.34375 -2.59375 "/></g><g transform="translate(77.489061, 45.001228)"><path style="stroke:none" d="M 11.046875 -3.453125 C 11.097656 -3.097656 11.125 -2.816406 11.125 -2.609375 C 11.125 -2.398438 11.085938 -2.21875 11.015625 -2.0625 C 10.941406 -1.914062 10.773438 -1.703125 10.515625 -1.421875 C 10.265625 -1.148438 9.960938 -0.875 9.609375 -0.59375 C 8.753906 0.09375 7.875 0.4375 6.96875 0.4375 C 5.6875 0.4375 5.046875 -0.132812 5.046875 -1.28125 C 5.046875 -2.269531 5.90625 -4.242188 7.625 -7.203125 C 7.6875 -7.316406 7.734375 -7.394531 7.765625 -7.4375 C 7.160156 -7.019531 6.007812 -5.867188 4.3125 -3.984375 C 2.613281 -2.109375 1.484375 -0.78125 0.921875 0 C 0.867188 0.0703125 0.75 0.148438 0.5625 0.234375 C 0.375 0.316406 0.226562 0.359375 0.125 0.359375 C 0.0195312 0.359375 -0.09375 0.328125 -0.21875 0.265625 C -0.34375 0.203125 -0.421875 0.171875 -0.453125 0.171875 C -0.546875 0.171875 -0.59375 0.132812 -0.59375 0.0625 C -0.59375 0 -0.453125 -0.359375 -0.171875 -1.015625 C 0.0976562 -1.671875 0.460938 -2.484375 0.921875 -3.453125 C 2.160156 -6.117188 4.003906 -9.59375 6.453125 -13.875 C 7.316406 -15.375 7.988281 -16.4375 8.46875 -17.0625 C 8.8125 -17.507812 9.390625 -17.734375 10.203125 -17.734375 C 10.378906 -17.734375 10.476562 -17.679688 10.5 -17.578125 C 10.519531 -17.472656 10.53125 -17.363281 10.53125 -17.25 C 10.53125 -17.132812 10.507812 -17.019531 10.46875 -16.90625 L 9.21875 -14.9375 C 6.726562 -11.0625 4.851562 -7.851562 3.59375 -5.3125 C 4.8125 -6.789062 6 -7.9375 7.15625 -8.75 C 7.863281 -9.25 8.394531 -9.5 8.75 -9.5 C 9.101562 -9.5 9.425781 -9.441406 9.71875 -9.328125 C 10.007812 -9.222656 10.15625 -8.953125 10.15625 -8.515625 C 10.15625 -8.359375 9.898438 -7.78125 9.390625 -6.78125 C 7.867188 -3.78125 7.109375 -2.113281 7.109375 -1.78125 C 7.109375 -1.457031 7.242188 -1.296875 7.515625 -1.296875 C 7.910156 -1.296875 8.523438 -1.679688 9.359375 -2.453125 C 9.984375 -3.035156 10.375 -3.410156 10.53125 -3.578125 C 10.625 -3.648438 10.710938 -3.6875 10.796875 -3.6875 C 10.941406 -3.6875 11.023438 -3.609375 11.046875 -3.453125 Z M 11.046875 -3.453125 "/></g><g transform="translate(86.922654, 45.001228)"><path style="stroke:none" d="M 8.796875 -8.765625 C 8.796875 -8.253906 8.582031 -7.800781 8.15625 -7.40625 C 7.738281 -7.019531 7.265625 -6.828125 6.734375 -6.828125 C 6.566406 -6.828125 6.453125 -6.863281 6.390625 -6.9375 C 6.335938 -7.019531 6.3125 -7.128906 6.3125 -7.265625 C 6.3125 -7.398438 6.328125 -7.53125 6.359375 -7.65625 C 6.078125 -7.5625 5.765625 -7.414062 5.421875 -7.21875 C 5.078125 -7.019531 4.65625 -6.726562 4.15625 -6.34375 C 3.65625 -5.96875 3.40625 -5.6875 3.40625 -5.5 C 3.40625 -5.4375 3.5 -5.40625 3.6875 -5.40625 C 3.875 -5.40625 4.15625 -5.46875 4.53125 -5.59375 C 4.914062 -5.726562 5.179688 -5.796875 5.328125 -5.796875 C 5.484375 -5.796875 5.585938 -5.785156 5.640625 -5.765625 C 5.742188 -5.710938 5.851562 -5.59375 5.96875 -5.40625 C 6.082031 -5.226562 6.140625 -5.082031 6.140625 -4.96875 C 6.140625 -4.863281 6.035156 -4.722656 5.828125 -4.546875 C 5.628906 -4.378906 5.398438 -4.25 5.140625 -4.15625 C 4.890625 -4.070312 4.71875 -4.007812 4.625 -3.96875 C 2.976562 -3.039062 2.15625 -2.40625 2.15625 -2.0625 C 2.15625 -1.457031 2.675781 -1.15625 3.71875 -1.15625 C 4.382812 -1.15625 5.050781 -1.363281 5.71875 -1.78125 C 6.289062 -2.144531 6.804688 -2.507812 7.265625 -2.875 C 7.722656 -3.25 8.007812 -3.476562 8.125 -3.5625 C 8.25 -3.644531 8.34375 -3.6875 8.40625 -3.6875 C 8.601562 -3.6875 8.703125 -3.457031 8.703125 -3 C 8.703125 -2.550781 8.675781 -2.253906 8.625 -2.109375 C 8.570312 -1.972656 8.414062 -1.796875 8.15625 -1.578125 C 6.488281 -0.222656 4.90625 0.453125 3.40625 0.453125 C 2.613281 0.453125 1.976562 0.34375 1.5 0.125 C 0.625 -0.269531 0.1875 -0.878906 0.1875 -1.703125 C 0.1875 -2.773438 0.929688 -3.59375 2.421875 -4.15625 C 2.128906 -4.28125 1.9375 -4.445312 1.84375 -4.65625 C 1.757812 -4.863281 1.71875 -5.195312 1.71875 -5.65625 C 1.71875 -6.113281 1.929688 -6.597656 2.359375 -7.109375 C 2.785156 -7.617188 3.304688 -8.039062 3.921875 -8.375 C 5.296875 -9.113281 6.523438 -9.484375 7.609375 -9.484375 C 7.867188 -9.484375 8.128906 -9.421875 8.390625 -9.296875 C 8.660156 -9.171875 8.796875 -8.992188 8.796875 -8.765625 Z M 8.796875 -8.765625 "/></g><g transform="translate(94.539841, 45.001228)"><path style="stroke:none" d="M 4.5625 -6.390625 C 6.40625 -8.484375 7.972656 -9.53125 9.265625 -9.53125 C 9.585938 -9.53125 9.851562 -9.429688 10.0625 -9.234375 C 10.269531 -9.046875 10.375 -8.800781 10.375 -8.5 C 10.375 -8.195312 10.15625 -7.6875 9.71875 -6.96875 C 9.289062 -6.25 8.890625 -5.644531 8.515625 -5.15625 C 8.328125 -4.90625 8.109375 -4.78125 7.859375 -4.78125 C 7.609375 -4.78125 7.414062 -4.867188 7.28125 -5.046875 C 7.144531 -5.234375 7.078125 -5.445312 7.078125 -5.6875 C 7.078125 -6.226562 7.367188 -6.835938 7.953125 -7.515625 L 7.921875 -7.53125 C 7.660156 -7.507812 7.019531 -7.003906 6 -6.015625 C 4.988281 -5.023438 4.125 -4.132812 3.40625 -3.34375 C 2.6875 -2.5625 1.910156 -1.609375 1.078125 -0.484375 C 0.835938 -0.140625 0.632812 0.03125 0.46875 0.03125 C 0.300781 0.03125 0.078125 -0.0195312 -0.203125 -0.125 C -0.484375 -0.238281 -0.648438 -0.316406 -0.703125 -0.359375 C -0.765625 -0.410156 -0.796875 -0.488281 -0.796875 -0.59375 C -0.796875 -0.707031 -0.765625 -0.835938 -0.703125 -0.984375 C -0.640625 -1.128906 -0.523438 -1.332031 -0.359375 -1.59375 C -0.191406 -1.863281 0.0625 -2.296875 0.40625 -2.890625 C 0.75 -3.484375 1.28125 -4.378906 2 -5.578125 C 2.71875 -6.785156 3.144531 -7.515625 3.28125 -7.765625 C 3.582031 -8.273438 3.828125 -8.648438 4.015625 -8.890625 C 4.359375 -9.328125 4.953125 -9.546875 5.796875 -9.546875 C 5.984375 -9.546875 6.078125 -9.429688 6.078125 -9.203125 C 6.078125 -8.835938 5.734375 -8.144531 5.046875 -7.125 Z M 4.5625 -6.390625 "/></g><g transform="translate(102.918746, 45.001228)"><path style="stroke:none" d="M 11.046875 -3.453125 C 11.097656 -3.097656 11.125 -2.816406 11.125 -2.609375 C 11.125 -2.398438 11.085938 -2.21875 11.015625 -2.0625 C 10.941406 -1.914062 10.773438 -1.703125 10.515625 -1.421875 C 10.265625 -1.148438 9.960938 -0.875 9.609375 -0.59375 C 8.753906 0.09375 7.875 0.4375 6.96875 0.4375 C 5.6875 0.4375 5.046875 -0.132812 5.046875 -1.28125 C 5.046875 -2.269531 5.90625 -4.242188 7.625 -7.203125 C 7.6875 -7.316406 7.734375 -7.394531 7.765625 -7.4375 C 7.160156 -7.019531 6.007812 -5.867188 4.3125 -3.984375 C 2.613281 -2.109375 1.484375 -0.78125 0.921875 0 C 0.867188 0.0703125 0.75 0.148438 0.5625 0.234375 C 0.375 0.316406 0.226562 0.359375 0.125 0.359375 C 0.0195312 0.359375 -0.09375 0.328125 -0.21875 0.265625 C -0.34375 0.203125 -0.421875 0.171875 -0.453125 0.171875 C -0.546875 0.171875 -0.59375 0.132812 -0.59375 0.0625 C -0.59375 0 -0.453125 -0.359375 -0.171875 -1.015625 C 0.0976562 -1.671875 0.460938 -2.484375 0.921875 -3.453125 C 2.160156 -6.117188 4.003906 -9.59375 6.453125 -13.875 C 7.316406 -15.375 7.988281 -16.4375 8.46875 -17.0625 C 8.8125 -17.507812 9.390625 -17.734375 10.203125 -17.734375 C 10.378906 -17.734375 10.476562 -17.679688 10.5 -17.578125 C 10.519531 -17.472656 10.53125 -17.363281 10.53125 -17.25 C 10.53125 -17.132812 10.507812 -17.019531 10.46875 -16.90625 L 9.21875 -14.9375 C 6.726562 -11.0625 4.851562 -7.851562 3.59375 -5.3125 C 4.8125 -6.789062 6 -7.9375 7.15625 -8.75 C 7.863281 -9.25 8.394531 -9.5 8.75 -9.5 C 9.101562 -9.5 9.425781 -9.441406 9.71875 -9.328125 C 10.007812 -9.222656 10.15625 -8.953125 10.15625 -8.515625 C 10.15625 -8.359375 9.898438 -7.78125 9.390625 -6.78125 C 7.867188 -3.78125 7.109375 -2.113281 7.109375 -1.78125 C 7.109375 -1.457031 7.242188 -1.296875 7.515625 -1.296875 C 7.910156 -1.296875 8.523438 -1.679688 9.359375 -2.453125 C 9.984375 -3.035156 10.375 -3.410156 10.53125 -3.578125 C 10.625 -3.648438 10.710938 -3.6875 10.796875 -3.6875 C 10.941406 -3.6875 11.023438 -3.609375 11.046875 -3.453125 Z M 11.046875 -3.453125 "/></g><g transform="translate(112.352339, 45.001228)"><path style="stroke:none" d="M 8.796875 -8.765625 C 8.796875 -8.253906 8.582031 -7.800781 8.15625 -7.40625 C 7.738281 -7.019531 7.265625 -6.828125 6.734375 -6.828125 C 6.566406 -6.828125 6.453125 -6.863281 6.390625 -6.9375 C 6.335938 -7.019531 6.3125 -7.128906 6.3125 -7.265625 C 6.3125 -7.398438 6.328125 -7.53125 6.359375 -7.65625 C 6.078125 -7.5625 5.765625 -7.414062 5.421875 -7.21875 C 5.078125 -7.019531 4.65625 -6.726562 4.15625 -6.34375 C 3.65625 -5.96875 3.40625 -5.6875 3.40625 -5.5 C 3.40625 -5.4375 3.5 -5.40625 3.6875 -5.40625 C 3.875 -5.40625 4.15625 -5.46875 4.53125 -5.59375 C 4.914062 -5.726562 5.179688 -5.796875 5.328125 -5.796875 C 5.484375 -5.796875 5.585938 -5.785156 5.640625 -5.765625 C 5.742188 -5.710938 5.851562 -5.59375 5.96875 -5.40625 C 6.082031 -5.226562 6.140625 -5.082031 6.140625 -4.96875 C 6.140625 -4.863281 6.035156 -4.722656 5.828125 -4.546875 C 5.628906 -4.378906 5.398438 -4.25 5.140625 -4.15625 C 4.890625 -4.070312 4.71875 -4.007812 4.625 -3.96875 C 2.976562 -3.039062 2.15625 -2.40625 2.15625 -2.0625 C 2.15625 -1.457031 2.675781 -1.15625 3.71875 -1.15625 C 4.382812 -1.15625 5.050781 -1.363281 5.71875 -1.78125 C 6.289062 -2.144531 6.804688 -2.507812 7.265625 -2.875 C 7.722656 -3.25 8.007812 -3.476562 8.125 -3.5625 C 8.25 -3.644531 8.34375 -3.6875 8.40625 -3.6875 C 8.601562 -3.6875 8.703125 -3.457031 8.703125 -3 C 8.703125 -2.550781 8.675781 -2.253906 8.625 -2.109375 C 8.570312 -1.972656 8.414062 -1.796875 8.15625 -1.578125 C 6.488281 -0.222656 4.90625 0.453125 3.40625 0.453125 C 2.613281 0.453125 1.976562 0.34375 1.5 0.125 C 0.625 -0.269531 0.1875 -0.878906 0.1875 -1.703125 C 0.1875 -2.773438 0.929688 -3.59375 2.421875 -4.15625 C 2.128906 -4.28125 1.9375 -4.445312 1.84375 -4.65625 C 1.757812 -4.863281 1.71875 -5.195312 1.71875 -5.65625 C 1.71875 -6.113281 1.929688 -6.597656 2.359375 -7.109375 C 2.785156 -7.617188 3.304688 -8.039062 3.921875 -8.375 C 5.296875 -9.113281 6.523438 -9.484375 7.609375 -9.484375 C 7.867188 -9.484375 8.128906 -9.421875 8.390625 -9.296875 C 8.660156 -9.171875 8.796875 -8.992188 8.796875 -8.765625 Z M 8.796875 -8.765625 "/></g><g transform="translate(119.969526, 45.001228)"><path style="stroke:none" d="M 8.359375 -12.875 C 8.359375 -12.425781 8.148438 -11.976562 7.734375 -11.53125 C 7.316406 -11.082031 6.882812 -10.859375 6.4375 -10.859375 C 5.988281 -10.859375 5.765625 -11.09375 5.765625 -11.5625 C 5.765625 -12.03125 5.960938 -12.472656 6.359375 -12.890625 C 6.753906 -13.316406 7.191406 -13.53125 7.671875 -13.53125 C 7.878906 -13.53125 8.046875 -13.472656 8.171875 -13.359375 C 8.296875 -13.242188 8.359375 -13.082031 8.359375 -12.875 Z M 6.453125 -2.640625 C 6.453125 -2.398438 6.429688 -2.234375 6.390625 -2.140625 C 6.003906 -1.359375 5.394531 -0.722656 4.5625 -0.234375 C 3.726562 0.242188 3 0.484375 2.375 0.484375 C 1.757812 0.484375 1.226562 0.273438 0.78125 -0.140625 C 0.34375 -0.554688 0.125 -0.976562 0.125 -1.40625 C 0.125 -1.832031 0.335938 -2.457031 0.765625 -3.28125 C 1.191406 -4.101562 1.617188 -4.859375 2.046875 -5.546875 C 2.484375 -6.242188 2.703125 -6.625 2.703125 -6.6875 C 2.703125 -6.75 2.617188 -6.863281 2.453125 -7.03125 C 2.296875 -7.207031 2.21875 -7.332031 2.21875 -7.40625 C 2.21875 -7.488281 2.378906 -7.703125 2.703125 -8.046875 C 3.023438 -8.398438 3.414062 -8.742188 3.875 -9.078125 C 4.34375 -9.421875 4.703125 -9.59375 4.953125 -9.59375 C 5.203125 -9.59375 5.421875 -9.484375 5.609375 -9.265625 C 5.804688 -9.046875 5.90625 -8.847656 5.90625 -8.671875 C 5.90625 -8.492188 4.976562 -6.800781 3.125 -3.59375 C 3.09375 -3.550781 3.023438 -3.445312 2.921875 -3.28125 C 2.816406 -3.125 2.734375 -2.992188 2.671875 -2.890625 C 2.617188 -2.785156 2.550781 -2.660156 2.46875 -2.515625 C 2.3125 -2.203125 2.234375 -1.9375 2.234375 -1.71875 C 2.234375 -1.457031 2.410156 -1.328125 2.765625 -1.328125 C 3.128906 -1.328125 3.503906 -1.445312 3.890625 -1.6875 C 4.285156 -1.9375 4.625 -2.210938 4.90625 -2.515625 C 5.632812 -3.296875 6.050781 -3.6875 6.15625 -3.6875 C 6.351562 -3.6875 6.453125 -3.335938 6.453125 -2.640625 Z M 6.453125 -2.640625 "/></g><g transform="translate(124.832807, 45.001228)"><path style="stroke:none" d="M 8.796875 -15.09375 L 9.265625 -14.984375 C 9.335938 -14.984375 9.398438 -14.945312 9.453125 -14.875 C 9.515625 -14.800781 9.546875 -14.734375 9.546875 -14.671875 C 9.546875 -14.609375 9.460938 -14.441406 9.296875 -14.171875 C 9.128906 -13.898438 8.929688 -13.585938 8.703125 -13.234375 C 8.484375 -12.890625 8.367188 -12.703125 8.359375 -12.671875 C 8.960938 -12.710938 9.390625 -12.734375 9.640625 -12.734375 C 9.898438 -12.734375 10.078125 -12.71875 10.171875 -12.6875 C 10.265625 -12.65625 10.367188 -12.554688 10.484375 -12.390625 C 10.609375 -12.234375 10.722656 -12.113281 10.828125 -12.03125 C 10.929688 -11.945312 10.984375 -11.820312 10.984375 -11.65625 C 10.984375 -11.5 10.882812 -11.363281 10.6875 -11.25 C 10.488281 -11.132812 10.273438 -11.066406 10.046875 -11.046875 C 8.234375 -10.859375 7.234375 -10.765625 7.046875 -10.765625 C 6.410156 -9.796875 5.523438 -8.285156 4.390625 -6.234375 C 3.253906 -4.179688 2.648438 -2.894531 2.578125 -2.375 C 2.546875 -2.144531 2.53125 -1.957031 2.53125 -1.8125 C 2.53125 -1.5 2.691406 -1.34375 3.015625 -1.34375 C 3.335938 -1.34375 3.691406 -1.46875 4.078125 -1.71875 C 4.472656 -1.96875 4.832031 -2.234375 5.15625 -2.515625 C 6.03125 -3.296875 6.5 -3.6875 6.5625 -3.6875 C 6.769531 -3.6875 6.875 -3.335938 6.875 -2.640625 C 6.875 -2.253906 6.695312 -1.910156 6.34375 -1.609375 C 5.550781 -0.929688 4.882812 -0.414062 4.34375 -0.0625 C 3.8125 0.28125 3.273438 0.453125 2.734375 0.453125 C 2.617188 0.453125 2.507812 0.4375 2.40625 0.40625 C 1.78125 0.289062 1.320312 0.0664062 1.03125 -0.265625 C 0.738281 -0.609375 0.59375 -1.066406 0.59375 -1.640625 C 0.59375 -2.222656 0.765625 -2.925781 1.109375 -3.75 C 1.453125 -4.582031 1.878906 -5.460938 2.390625 -6.390625 C 3.234375 -7.898438 4.078125 -9.320312 4.921875 -10.65625 L 4.484375 -10.59375 C 3.578125 -10.488281 3.046875 -10.4375 2.890625 -10.4375 L 2.796875 -10.4375 C 2.566406 -10.4375 2.34375 -10.484375 2.125 -10.578125 C 1.914062 -10.671875 1.8125 -10.78125 1.8125 -10.90625 C 1.8125 -11.039062 1.867188 -11.171875 1.984375 -11.296875 C 2.097656 -11.421875 2.164062 -11.519531 2.1875 -11.59375 C 2.25 -11.757812 2.457031 -11.945312 2.8125 -12.15625 C 3.164062 -12.375 3.429688 -12.488281 3.609375 -12.5 C 3.785156 -12.507812 3.957031 -12.519531 4.125 -12.53125 C 4.300781 -12.539062 4.488281 -12.546875 4.6875 -12.546875 C 4.894531 -12.554688 5.054688 -12.566406 5.171875 -12.578125 L 6.21875 -12.625 C 6.875 -13.601562 7.328125 -14.234375 7.578125 -14.515625 C 7.828125 -14.796875 7.96875 -14.953125 8 -14.984375 C 8.039062 -15.015625 8.117188 -15.03125 8.234375 -15.03125 Z M 8.796875 -15.09375 "/></g></g></g></svg>